<svg width="77" height="58" viewBox="0 0 77 58" fill="none" xmlns="http://www.w3.org/2000/svg">
<g filter="url(#filter0_d_33_455)">
<rect x="9.32292" y="9.32292" width="58.2083" height="39.6875" rx="5.29167" fill="white" stroke="#D9D9D9" stroke-width="2.64583"/>
<path fill-rule="evenodd" clip-rule="evenodd" d="M36.7407 35.7954V30.4667H39.4516C40.5625 30.4667 41.5001 30.0891 42.2644 29.3444L42.4479 29.1556C43.8441 27.6136 43.7524 25.2115 42.2644 23.785C41.5205 23.0297 40.5013 22.6207 39.4516 22.6416H35.0999V35.7954H36.7407ZM36.7405 28.8515V24.2571H39.4926C40.0838 24.2571 40.6444 24.4878 41.0623 24.9074C41.9491 25.7885 41.9695 27.2571 41.1133 28.1696C40.6954 28.6207 40.1042 28.8724 39.4926 28.8515H36.7405ZM50.1016 27.4983C49.3984 26.8374 48.4404 26.5018 47.2276 26.5018C45.6683 26.5018 44.4963 27.0892 43.7217 28.2535L45.1689 29.1871C45.6989 28.3899 46.4225 27.9913 47.3397 27.9913C47.9206 27.9913 48.4811 28.2116 48.9194 28.6102C49.3474 28.9878 49.592 29.5332 49.592 30.1101V30.4982C48.9601 30.1416 48.1652 29.9528 47.1868 29.9528C46.0454 29.9528 45.1281 30.2255 44.4453 30.7815C43.7625 31.3374 43.416 32.0717 43.416 33.0052C43.3956 33.8549 43.7523 34.6625 44.3842 35.208C45.0262 35.7954 45.8415 36.0891 46.7995 36.0891C47.9308 36.0891 48.8276 35.5751 49.5105 34.5472H49.5818V35.7954H51.1513V30.2465C51.1513 29.0822 50.8048 28.1591 50.1016 27.4983ZM45.6485 34.1381C45.3122 33.8863 45.1083 33.4772 45.1083 33.0367C45.1083 32.5437 45.3326 32.1346 45.7709 31.8094C46.2194 31.4842 46.78 31.3164 47.4425 31.3164C48.3599 31.3059 49.0734 31.5157 49.5831 31.9353C49.5831 32.6486 49.3078 33.2674 48.7676 33.7919C48.2783 34.2954 47.6158 34.5786 46.9227 34.5786C46.464 34.5891 46.0155 34.4318 45.6485 34.1381ZM54.6774 39.7501L60.1603 26.7957H58.3768L55.8392 33.2572H55.8086L53.2098 26.7957H51.4263L55.0239 35.2187L52.9856 39.7501H54.6774Z" fill="#3C4043"/>
<path d="M31.0762 29.3128C31.0762 28.7988 31.0355 28.2849 30.9539 27.7814H24.0339V30.6869H27.9984C27.8353 31.6205 27.3054 32.4597 26.5308 32.9841V34.8722H28.8952C30.2813 33.561 31.0762 31.6205 31.0762 29.3128Z" fill="#4285F4"/>
<path d="M24.0338 36.6975C26.0109 36.6975 27.6823 36.0262 28.8951 34.8723L26.5307 32.9842C25.8683 33.4458 25.0224 33.708 24.0338 33.708C22.1178 33.708 20.4974 32.3759 19.9165 30.5927H17.4807V32.5437C18.7241 35.0926 21.2617 36.6975 24.0338 36.6975Z" fill="#34A853"/>
<path d="M19.9169 30.5926C19.6111 29.659 19.6111 28.6416 19.9169 27.6975V25.757H17.4808C16.4309 27.8863 16.4309 30.4038 17.4808 32.5331L19.9169 30.5926Z" fill="#FBBC04"/>
<path d="M24.0338 24.5821C25.0835 24.5611 26.0925 24.9702 26.8466 25.715L28.9461 23.5541C27.611 22.2744 25.8581 21.5716 24.0338 21.5926C21.2617 21.5926 18.7241 23.208 17.4807 25.7569L19.9165 27.708C20.4974 25.9143 22.1178 24.5821 24.0338 24.5821Z" fill="#EA4335"/>
</g>
<defs>
<filter id="filter0_d_33_455" x="0.440945" y="0.440945" width="75.9724" height="57.4515" filterUnits="userSpaceOnUse" color-interpolation-filters="sRGB">
<feFlood flood-opacity="0" result="BackgroundImageFix"/>
<feColorMatrix in="SourceAlpha" type="matrix" values="0 0 0 0 0 0 0 0 0 0 0 0 0 0 0 0 0 0 127 0" result="hardAlpha"/>
<feOffset/>
<feGaussianBlur stdDeviation="3.77953"/>
<feComposite in2="hardAlpha" operator="out"/>
<feColorMatrix type="matrix" values="0 0 0 0 0 0 0 0 0 0 0 0 0 0 0 0 0 0 0.07 0"/>
<feBlend mode="normal" in2="BackgroundImageFix" result="effect1_dropShadow_33_455"/>
<feBlend mode="normal" in="SourceGraphic" in2="effect1_dropShadow_33_455" result="shape"/>
</filter>
</defs>
</svg>
