<svg width="77" height="58" viewBox="0 0 77 58" fill="none" xmlns="http://www.w3.org/2000/svg">
<g filter="url(#filter0_d_33_437)">
<rect x="9.32292" y="9.32292" width="58.2083" height="39.6875" rx="5.29167" fill="white" stroke="#D9D9D9" stroke-width="2.64583"/>
<path fill-rule="evenodd" clip-rule="evenodd" d="M25.4626 34.8833H22.7187C22.5309 34.8833 22.3712 35.0198 22.3419 35.2051L21.2321 42.2413C21.2101 42.3802 21.3176 42.5054 21.4584 42.5054H22.7684C22.9562 42.5054 23.1159 42.3689 23.1452 42.1832L23.4445 40.2855C23.4733 40.0996 23.6334 39.9633 23.8208 39.9633H24.6894C26.497 39.9633 27.5401 39.0886 27.8127 37.3554C27.9354 36.5971 27.8179 36.0012 27.4627 35.5838C27.0727 35.1258 26.3809 34.8833 25.4626 34.8833ZM25.7792 37.4532C25.6291 38.4378 24.8768 38.4378 24.1494 38.4378H23.7354L24.0258 36.5989C24.0431 36.4879 24.1394 36.406 24.2517 36.406H24.4415C24.937 36.406 25.4045 36.406 25.646 36.6884C25.7899 36.857 25.8341 37.1073 25.7792 37.4532ZM33.6649 37.4216H32.3509C32.2389 37.4216 32.1422 37.5035 32.1249 37.6147L32.0668 37.9822L31.9749 37.8491C31.6904 37.4361 31.0562 37.2982 30.423 37.2982C28.9709 37.2982 27.7308 38.3979 27.4892 39.9407C27.3637 40.7101 27.5421 41.4459 27.9786 41.9591C28.3791 42.4309 28.9521 42.6275 29.6337 42.6275C30.8037 42.6275 31.4526 41.8752 31.4526 41.8752L31.3939 42.2404C31.3718 42.38 31.4793 42.5052 31.6193 42.5052H32.803C32.9913 42.5052 33.15 42.3687 33.1797 42.183L33.8899 37.6857C33.9124 37.5473 33.8053 37.4216 33.6649 37.4216ZM31.8332 39.9791C31.7064 40.7298 31.1106 41.2337 30.3508 41.2337C29.9692 41.2337 29.6642 41.1113 29.4685 40.8794C29.2743 40.6492 29.2004 40.3213 29.2622 39.9563C29.3807 39.2119 29.9865 38.6916 30.7348 38.6916C31.1078 38.6916 31.4112 38.8155 31.611 39.0494C31.8111 39.2858 31.8906 39.6155 31.8332 39.9791ZM39.3426 37.4215H40.6631C40.848 37.4215 40.9559 37.6288 40.8508 37.7805L36.4591 44.1198C36.388 44.2225 36.2708 44.2836 36.1457 44.2836H34.8268C34.6411 44.2836 34.5327 44.0745 34.6402 43.9224L36.0077 41.9922L34.5533 37.7239C34.503 37.5756 34.6126 37.4215 34.7704 37.4215H36.0679C36.2365 37.4215 36.3852 37.5321 36.4338 37.6935L37.2057 40.2713L39.0269 37.5887C39.0982 37.484 39.2167 37.4215 39.3426 37.4215Z" fill="#253B80"/>
<path fill-rule="evenodd" clip-rule="evenodd" d="M53.6588 42.241L54.7849 35.076C54.8022 34.9648 54.8985 34.8829 55.0105 34.8826H56.2783C56.4183 34.8826 56.5258 35.0081 56.5037 35.147L55.3932 42.1829C55.3642 42.3685 55.2045 42.505 55.0164 42.505H53.8842C53.7442 42.505 53.6367 42.3799 53.6588 42.241ZM45.0345 34.8829H42.29C42.1027 34.8829 41.943 35.0194 41.9137 35.2047L40.8039 42.241C40.7818 42.3799 40.8893 42.505 41.0295 42.505H42.4377C42.5686 42.505 42.6805 42.4096 42.7009 42.2796L43.0158 40.2851C43.0448 40.0992 43.2049 39.963 43.3922 39.963H44.2604C46.0683 39.963 47.1112 39.0882 47.384 37.355C47.5071 36.5967 47.3888 36.0009 47.0338 35.5835C46.6441 35.1254 45.9528 34.8829 45.0345 34.8829ZM45.351 37.4528C45.2014 38.4375 44.449 38.4375 43.7212 38.4375H43.3075L43.5985 36.5986C43.6157 36.4875 43.7112 36.4056 43.8239 36.4056H44.0136C44.5088 36.4056 44.9767 36.4056 45.2181 36.6881C45.3622 36.8566 45.406 37.1069 45.351 37.4528ZM53.236 37.4213H51.9229C51.8101 37.4213 51.7142 37.5032 51.6973 37.6144L51.6392 37.9818L51.547 37.8487C51.2625 37.4358 50.6286 37.2978 49.9955 37.2978C48.5433 37.2978 47.3036 38.3975 47.062 39.9403C46.9369 40.7097 47.1146 41.4456 47.5511 41.9588C47.9523 42.4305 48.5246 42.6272 49.2062 42.6272C50.3761 42.6272 51.0248 41.8748 51.0248 41.8748L50.9664 42.24C50.9443 42.3797 51.0518 42.5048 51.1927 42.5048H52.3758C52.5631 42.5048 52.7228 42.3683 52.7522 42.1827L53.4627 37.6853C53.4845 37.547 53.3769 37.4213 53.236 37.4213ZM51.4045 39.9787C51.2785 40.7294 50.6819 41.2333 49.9219 41.2333C49.5411 41.2333 49.2355 41.111 49.0396 40.8791C48.8454 40.6488 48.7724 40.3209 48.8335 39.9559C48.9525 39.2115 49.5577 38.6913 50.3059 38.6913C50.6791 38.6913 50.9823 38.8151 51.1823 39.0491C51.3832 39.2854 51.4627 39.6152 51.4045 39.9787Z" fill="#179BD7"/>
<path d="M35.6169 32.3659L35.9543 30.2232L35.2029 30.2057H31.6147L34.1083 14.3945C34.1159 14.3468 34.1412 14.3023 34.178 14.2707C34.2147 14.2391 34.2619 14.2217 34.3109 14.2217H40.3611C42.3697 14.2217 43.7557 14.6396 44.4795 15.4646C44.8187 15.8516 45.0348 16.256 45.1393 16.7011C45.2489 17.1681 45.2509 17.726 45.1438 18.4065L45.136 18.4562V18.8922L45.4754 19.0844C45.7612 19.236 45.9881 19.4095 46.1622 19.6082C46.4526 19.9391 46.6403 20.3596 46.7196 20.8582C46.8015 21.371 46.7744 21.9812 46.6403 22.672C46.4855 23.4667 46.2352 24.1587 45.8973 24.7251C45.5863 25.2469 45.1902 25.6796 44.7201 26.0151C44.2711 26.3337 43.7377 26.5757 43.1346 26.7305C42.5501 26.8826 41.8839 26.9594 41.1531 26.9594H40.6823C40.3456 26.9594 40.0185 27.0807 39.7619 27.2981C39.5045 27.52 39.3341 27.823 39.2819 28.1546L39.2465 28.3475L38.6505 32.1239L38.6233 32.2626C38.6163 32.3066 38.604 32.3285 38.586 32.3434C38.5699 32.3568 38.5467 32.3659 38.524 32.3659H35.6169Z" fill="#253B80"/>
<path d="M45.7968 18.507C45.7788 18.6224 45.7582 18.7404 45.735 18.8617C44.937 22.9582 42.2074 24.3733 38.721 24.3733H36.946C36.5197 24.3733 36.1604 24.6829 36.0939 25.1035L35.1851 30.8674L34.9277 32.5011C34.8845 32.7772 35.0974 33.0262 35.3759 33.0262H38.5244C38.8972 33.0262 39.2138 32.7553 39.2725 32.3877L39.3035 32.2276L39.8963 28.4659L39.9344 28.2596C39.9923 27.8907 40.3096 27.6198 40.6825 27.6198H41.1533C44.2036 27.6198 46.5915 26.3813 47.2895 22.7976C47.581 21.3005 47.43 20.0505 46.6585 19.1713C46.4251 18.9062 46.1355 18.6863 45.7968 18.507Z" fill="#179BD7"/>
<path d="M44.9623 18.174C44.8405 18.1385 44.7146 18.1062 44.5856 18.0772C44.456 18.0488 44.323 18.0237 44.1864 18.0017C43.7077 17.9243 43.1834 17.8876 42.6215 17.8876H37.8794C37.7626 17.8876 37.6518 17.914 37.5525 17.9617C37.3337 18.0669 37.1713 18.2739 37.1319 18.5274L36.123 24.9169L36.094 25.1033C36.1605 24.6828 36.5197 24.3732 36.946 24.3732H38.7211C42.2075 24.3732 44.9372 22.9574 45.7351 18.8615C45.7588 18.7403 45.7789 18.6222 45.7969 18.5068C45.5951 18.3997 45.3763 18.3081 45.1409 18.2301C45.083 18.2107 45.023 18.192 44.9623 18.174Z" fill="#222D65"/>
<path d="M37.1317 18.5275C37.1711 18.274 37.3337 18.0669 37.5523 17.9624C37.6524 17.9147 37.7627 17.8883 37.8793 17.8883H42.6215C43.1834 17.8883 43.7077 17.925 44.1862 18.0024C44.323 18.0244 44.456 18.0495 44.5856 18.0779C44.7146 18.1069 44.8403 18.1392 44.9623 18.1746C45.0228 18.1927 45.0828 18.2114 45.1415 18.2301C45.3769 18.3082 45.5956 18.4004 45.7975 18.5068C46.0349 16.993 45.7956 15.9623 44.9772 15.0289C44.0748 14.0014 42.4461 13.5615 40.3621 13.5615H34.3117C33.886 13.5615 33.523 13.8711 33.4571 14.2923L30.9371 30.2661C30.8874 30.5821 31.1312 30.8673 31.4498 30.8673H35.1851L36.123 24.917L37.1317 18.5275Z" fill="#253B80"/>
</g>
<defs>
<filter id="filter0_d_33_437" x="0.440945" y="0.440945" width="75.9724" height="57.4515" filterUnits="userSpaceOnUse" color-interpolation-filters="sRGB">
<feFlood flood-opacity="0" result="BackgroundImageFix"/>
<feColorMatrix in="SourceAlpha" type="matrix" values="0 0 0 0 0 0 0 0 0 0 0 0 0 0 0 0 0 0 127 0" result="hardAlpha"/>
<feOffset/>
<feGaussianBlur stdDeviation="3.77953"/>
<feComposite in2="hardAlpha" operator="out"/>
<feColorMatrix type="matrix" values="0 0 0 0 0 0 0 0 0 0 0 0 0 0 0 0 0 0 0.07 0"/>
<feBlend mode="normal" in2="BackgroundImageFix" result="effect1_dropShadow_33_437"/>
<feBlend mode="normal" in="SourceGraphic" in2="effect1_dropShadow_33_437" result="shape"/>
</filter>
</defs>
</svg>
