<svg width="77" height="58" viewBox="0 0 77 58" fill="none" xmlns="http://www.w3.org/2000/svg">
<g filter="url(#filter0_d_33_489)">
<rect x="9.32292" y="9.32292" width="58.2083" height="39.6875" rx="5.29167" fill="white" stroke="#D9D9D9" stroke-width="2.64583"/>
<path fill-rule="evenodd" clip-rule="evenodd" d="M22.5114 23.7569C23.3287 23.8269 24.1459 23.3373 24.6567 22.7166C25.159 22.0784 25.491 21.2216 25.4059 20.3474C24.6822 20.3824 23.7884 20.837 23.2776 21.4752C22.8094 22.0259 22.4092 22.9177 22.5114 23.7569ZM32.2331 35.0174V21.388H37.2133C39.7842 21.388 41.5805 23.2065 41.5805 25.8641C41.5805 28.5218 39.7502 30.3577 37.1452 30.3577H34.2933V35.0174H32.2331ZM25.3972 23.9228C24.6773 23.8802 24.0203 24.1452 23.4897 24.3591L23.4897 24.3591C23.1482 24.4968 22.859 24.6134 22.639 24.6134C22.3921 24.6134 22.091 24.4906 21.7529 24.3527C21.3099 24.172 20.8035 23.9653 20.2724 23.9753C19.055 23.9927 17.9228 24.7009 17.3013 25.8286C16.0243 28.0842 16.9693 31.4237 18.2037 33.2596C18.8081 34.1688 19.5317 35.1655 20.4852 35.1305C20.9047 35.1142 21.2064 34.9828 21.5187 34.8467C21.8782 34.69 22.2517 34.5273 22.8348 34.5273C23.3977 34.5273 23.7549 34.6858 24.0977 34.8379C24.4237 34.9826 24.7367 35.1215 25.2014 35.113C26.189 35.0955 26.8104 34.2038 27.4148 33.2946C28.0671 32.3188 28.3538 31.3664 28.3973 31.2219L28.4024 31.2052C28.4013 31.2041 28.3933 31.2003 28.3792 31.1937L28.3791 31.1936L28.379 31.1936C28.161 31.0911 26.4944 30.3076 26.4784 28.2066C26.4624 26.443 27.8003 25.5495 28.0109 25.4089L28.011 25.4088C28.0238 25.4003 28.0324 25.3945 28.0363 25.3915C27.185 24.0976 25.857 23.9578 25.3972 23.9228ZM45.3437 35.1219C46.6377 35.1219 47.838 34.4488 48.3828 33.3822H48.4254V35.017H50.3323V28.233C50.3323 26.2659 48.8 24.9983 46.4419 24.9983C44.254 24.9983 42.6365 26.2834 42.5769 28.0494H44.4328C44.586 27.2101 45.3437 26.6593 46.3823 26.6593C47.6422 26.6593 48.3488 27.2626 48.3488 28.3728V29.1247L45.7778 29.282C43.3857 29.4307 42.0917 30.436 42.0917 32.1845C42.0917 33.9505 43.4282 35.1219 45.3437 35.1219ZM45.8969 33.5045C44.7987 33.5045 44.1006 32.9625 44.1006 32.132C44.1006 31.2752 44.7731 30.7769 46.0586 30.6983L48.3486 30.5496V31.319C48.3486 32.5953 47.293 33.5045 45.8969 33.5045ZM56.6575 35.5503C55.8317 37.937 54.8867 38.7238 52.8777 38.7238C52.7244 38.7238 52.2136 38.7063 52.0944 38.6713V37.0365C52.2221 37.054 52.5371 37.0715 52.6989 37.0715C53.6098 37.0715 54.1206 36.6781 54.4355 35.6552L54.6228 35.052L51.1325 25.1294H53.2863L55.7125 33.1811H55.7551L58.1813 25.1294H60.2755L56.6575 35.5503ZM34.2931 23.1715H36.6682C38.456 23.1715 39.4775 24.1507 39.4775 25.8729C39.4775 27.5952 38.456 28.583 36.6597 28.583H34.2931V23.1715Z" fill="black"/>
</g>
<defs>
<filter id="filter0_d_33_489" x="0.440945" y="0.440945" width="75.9724" height="57.4515" filterUnits="userSpaceOnUse" color-interpolation-filters="sRGB">
<feFlood flood-opacity="0" result="BackgroundImageFix"/>
<feColorMatrix in="SourceAlpha" type="matrix" values="0 0 0 0 0 0 0 0 0 0 0 0 0 0 0 0 0 0 127 0" result="hardAlpha"/>
<feOffset/>
<feGaussianBlur stdDeviation="3.77953"/>
<feComposite in2="hardAlpha" operator="out"/>
<feColorMatrix type="matrix" values="0 0 0 0 0 0 0 0 0 0 0 0 0 0 0 0 0 0 0.07 0"/>
<feBlend mode="normal" in2="BackgroundImageFix" result="effect1_dropShadow_33_489"/>
<feBlend mode="normal" in="SourceGraphic" in2="effect1_dropShadow_33_489" result="shape"/>
</filter>
</defs>
</svg>
