<svg width="77" height="58" viewBox="0 0 77 58" fill="none" xmlns="http://www.w3.org/2000/svg">
<g filter="url(#filter0_d_33_413)">
<rect x="9.32292" y="9.32292" width="58.2083" height="39.6875" rx="5.29167" fill="white" stroke="#D9D9D9" stroke-width="2.64583"/>
<path fill-rule="evenodd" clip-rule="evenodd" d="M47.62 42.0735C54.9639 42.0735 60.9173 36.2183 60.9173 28.9955C60.9173 21.7727 54.9639 15.9175 47.62 15.9175C44.3286 15.9175 41.3165 17.0936 38.9945 19.0418C36.6725 17.0936 33.6604 15.9175 30.3691 15.9175C23.0252 15.9175 17.0718 21.7727 17.0718 28.9955C17.0718 36.2183 23.0252 42.0735 30.3691 42.0735C33.6604 42.0735 36.6725 40.8974 38.9945 38.9492C41.3165 40.8974 44.3286 42.0735 47.62 42.0735Z" fill="#ED0006"/>
<path fill-rule="evenodd" clip-rule="evenodd" d="M38.9941 38.9494C41.8533 36.5507 43.6663 32.9813 43.6663 28.9955C43.6663 25.0096 41.8533 21.4403 38.9941 19.0415C41.3161 17.0935 44.328 15.9175 47.6193 15.9175C54.9632 15.9175 60.9165 21.7727 60.9165 28.9955C60.9165 36.2183 54.9632 42.0735 47.6193 42.0735C44.328 42.0735 41.3161 40.8975 38.9941 38.9494Z" fill="#F9A000"/>
<path fill-rule="evenodd" clip-rule="evenodd" d="M38.9944 38.9497C41.8533 36.551 43.6662 32.9817 43.6662 28.996C43.6662 25.0104 41.8533 21.4411 38.9944 19.0424C36.1354 21.4411 34.3225 25.0104 34.3225 28.996C34.3225 32.9817 36.1354 36.551 38.9944 38.9497Z" fill="#FF5E00"/>
</g>
<defs>
<filter id="filter0_d_33_413" x="0.440945" y="0.440945" width="75.9724" height="57.4515" filterUnits="userSpaceOnUse" color-interpolation-filters="sRGB">
<feFlood flood-opacity="0" result="BackgroundImageFix"/>
<feColorMatrix in="SourceAlpha" type="matrix" values="0 0 0 0 0 0 0 0 0 0 0 0 0 0 0 0 0 0 127 0" result="hardAlpha"/>
<feOffset/>
<feGaussianBlur stdDeviation="3.77953"/>
<feComposite in2="hardAlpha" operator="out"/>
<feColorMatrix type="matrix" values="0 0 0 0 0 0 0 0 0 0 0 0 0 0 0 0 0 0 0.07 0"/>
<feBlend mode="normal" in2="BackgroundImageFix" result="effect1_dropShadow_33_413"/>
<feBlend mode="normal" in="SourceGraphic" in2="effect1_dropShadow_33_413" result="shape"/>
</filter>
</defs>
</svg>
