<svg width="77" height="58" viewBox="0 0 77 58" fill="none" xmlns="http://www.w3.org/2000/svg">
<g filter="url(#filter0_d_33_399)">
<rect x="9.32292" y="9.32292" width="58.2083" height="39.6875" rx="5.29167" fill="white" stroke="#D9D9D9" stroke-width="2.64583"/>
<path d="M41.4338 42.3957C48.4973 42.4303 54.9446 36.4978 54.9446 29.2811C54.9446 21.3898 48.4973 15.9346 41.4338 15.9375H35.3545C28.2068 15.9346 22.3228 21.3913 22.3228 29.2811C22.3228 36.4993 28.2068 42.4303 35.3545 42.3957H41.4338Z" fill="#0079BE"/>
<path d="M35.3834 17.0311C28.8512 17.0333 23.5588 22.4533 23.5566 29.1427C23.5588 35.8315 28.8512 41.2514 35.3834 41.2536C41.9164 41.2514 47.211 35.8315 47.2117 29.1427C47.211 22.4533 41.9171 17.0333 35.3834 17.0311ZM27.8873 29.1427C27.8859 27.5961 28.3445 26.085 29.2031 24.8069C30.0617 23.5288 31.2804 22.5433 32.6999 21.979V36.3057C31.2802 35.7418 30.0614 34.7565 29.2028 33.4785C28.3441 32.2005 27.8856 30.6894 27.8873 29.1427ZM38.0663 36.3087V21.9783C39.4869 22.5417 40.7066 23.5272 41.5658 24.8057C42.4251 26.0842 42.8837 27.5961 42.8818 29.1435C42.8834 30.6908 42.4246 32.2025 41.5654 33.481C40.7063 34.7594 39.4867 35.7449 38.0663 36.3087Z" fill="white"/>
<path d="M41.4338 42.3957C48.4973 42.4303 54.9446 36.4978 54.9446 29.2811C54.9446 21.3898 48.4973 15.9346 41.4338 15.9375H35.3545C28.2068 15.9346 22.3228 21.3913 22.3228 29.2811C22.3228 36.4993 28.2068 42.4303 35.3545 42.3957H41.4338Z" fill="#0079BE"/>
<path d="M35.3834 17.0311C28.8512 17.0333 23.5588 22.4533 23.5566 29.1427C23.5588 35.8315 28.8512 41.2514 35.3834 41.2536C41.9164 41.2514 47.211 35.8315 47.2117 29.1427C47.211 22.4533 41.9171 17.0333 35.3834 17.0311ZM27.8873 29.1427C27.8859 27.5961 28.3445 26.085 29.2031 24.8069C30.0617 23.5288 31.2804 22.5433 32.6999 21.979V36.3057C31.2802 35.7418 30.0614 34.7565 29.2028 33.4785C28.3441 32.2005 27.8856 30.6894 27.8873 29.1427ZM38.0663 36.3087V21.9783C39.4869 22.5417 40.7066 23.5272 41.5658 24.8057C42.4251 26.0842 42.8837 27.5961 42.8818 29.1435C42.8834 30.6908 42.4246 32.2025 41.5654 33.481C40.7063 34.7594 39.4867 35.7449 38.0663 36.3087Z" fill="white"/>
</g>
<defs>
<filter id="filter0_d_33_399" x="0.440945" y="0.440945" width="75.9724" height="57.4515" filterUnits="userSpaceOnUse" color-interpolation-filters="sRGB">
<feFlood flood-opacity="0" result="BackgroundImageFix"/>
<feColorMatrix in="SourceAlpha" type="matrix" values="0 0 0 0 0 0 0 0 0 0 0 0 0 0 0 0 0 0 127 0" result="hardAlpha"/>
<feOffset/>
<feGaussianBlur stdDeviation="3.77953"/>
<feComposite in2="hardAlpha" operator="out"/>
<feColorMatrix type="matrix" values="0 0 0 0 0 0 0 0 0 0 0 0 0 0 0 0 0 0 0.07 0"/>
<feBlend mode="normal" in2="BackgroundImageFix" result="effect1_dropShadow_33_399"/>
<feBlend mode="normal" in="SourceGraphic" in2="effect1_dropShadow_33_399" result="shape"/>
</filter>
</defs>
</svg>
