<svg width="30" height="30" viewBox="0 0 30 30" fill="none" xmlns="http://www.w3.org/2000/svg">
<path d="M28.125 22.5C28.125 23.5355 27.2855 24.375 26.25 24.375H3.75C2.71447 24.375 1.875 23.5355 1.875 22.5V11.25C1.875 10.2145 2.71447 9.375 3.75 9.375H5.9467C7.43854 9.375 8.86928 8.78237 9.92418 7.72748L11.4775 6.17417C11.8291 5.82254 12.306 5.625 12.8033 5.625H17.1967C17.694 5.625 18.1709 5.82254 18.5225 6.17417L20.0758 7.72748C21.1307 8.78237 22.5615 9.375 24.0533 9.375H26.25C27.2855 9.375 28.125 10.2145 28.125 11.25V22.5ZM3.75 7.5C1.67893 7.5 0 9.17893 0 11.25V22.5C0 24.5711 1.67893 26.25 3.75 26.25H26.25C28.3211 26.25 30 24.5711 30 22.5V11.25C30 9.17893 28.3211 7.5 26.25 7.5H24.0533C23.0587 7.5 22.1049 7.10491 21.4017 6.40165L19.8484 4.84835C19.1451 4.14509 18.1913 3.75 17.1967 3.75H12.8033C11.8087 3.75 10.8549 4.14509 10.1517 4.84835L8.59835 6.40165C7.89509 7.10491 6.94126 7.5 5.9467 7.5H3.75Z" fill="white"/>
<path d="M15 20.625C12.4112 20.625 10.3125 18.5263 10.3125 15.9375C10.3125 13.3487 12.4112 11.25 15 11.25C17.5888 11.25 19.6875 13.3487 19.6875 15.9375C19.6875 18.5263 17.5888 20.625 15 20.625ZM15 22.5C18.6244 22.5 21.5625 19.5619 21.5625 15.9375C21.5625 12.3131 18.6244 9.375 15 9.375C11.3756 9.375 8.4375 12.3131 8.4375 15.9375C8.4375 19.5619 11.3756 22.5 15 22.5Z" fill="white"/>
<path d="M5.625 12.1875C5.625 12.7053 5.20527 13.125 4.6875 13.125C4.16973 13.125 3.75 12.7053 3.75 12.1875C3.75 11.6697 4.16973 11.25 4.6875 11.25C5.20527 11.25 5.625 11.6697 5.625 12.1875Z" fill="white"/>
</svg>
