<svg width="54" height="54" viewBox="0 0 54 54" fill="none" xmlns="http://www.w3.org/2000/svg">
<path d="M16.2 54C14.715 54 13.4438 53.4713 12.3863 52.4138C11.3288 51.3563 10.8 50.085 10.8 48.6C10.8 47.115 11.3288 45.8438 12.3863 44.7863C13.4438 43.7288 14.715 43.2 16.2 43.2C17.685 43.2 18.9563 43.7288 20.0138 44.7863C21.0713 45.8438 21.6 47.115 21.6 48.6C21.6 50.085 21.0713 51.3563 20.0138 52.4138C18.9563 53.4713 17.685 54 16.2 54ZM43.2 54C41.715 54 40.4438 53.4713 39.3863 52.4138C38.3288 51.3563 37.8 50.085 37.8 48.6C37.8 47.115 38.3288 45.8438 39.3863 44.7863C40.4438 43.7288 41.715 43.2 43.2 43.2C44.685 43.2 45.9563 43.7288 47.0138 44.7863C48.0713 45.8438 48.6 47.115 48.6 48.6C48.6 50.085 48.0713 51.3563 47.0138 52.4138C45.9563 53.4713 44.685 54 43.2 54ZM13.905 10.8L20.385 24.3H39.285L46.71 10.8H13.905ZM11.34 5.4H51.165C52.2 5.4 52.9875 5.86125 53.5275 6.78375C54.0675 7.70625 54.09 8.64 53.595 9.585L44.01 26.865C43.515 27.765 42.8513 28.4625 42.0188 28.9575C41.1863 29.4525 40.275 29.7 39.285 29.7H19.17L16.2 35.1H48.6V40.5H16.2C14.175 40.5 12.645 39.6113 11.61 37.8338C10.575 36.0563 10.53 34.29 11.475 32.535L15.12 25.92L5.4 5.4H0V0H8.775L11.34 5.4Z" fill="#FF6600"/>
</svg>
