<svg width="83" height="40" viewBox="0 0 83 40" fill="none" xmlns="http://www.w3.org/2000/svg">
<path d="M49.3946 23.5607C49.4033 23.4528 49.3687 23.3405 49.2449 23.2289C46.8233 21.0489 42.5871 19.4362 39.1812 17.8266C35.8012 16.2299 32.4405 14.591 28.9201 13.104C28.9318 13.029 28.9312 12.9537 28.9071 12.879C27.9834 9.99296 19.8834 11.6019 17.2483 12.2839C11.294 13.8248 5.97011 16.0503 0.972893 18.5001C0.344296 18.8082 0.789758 19.3003 1.42454 19.4063C5.60323 21.333 9.82522 23.2226 13.9643 25.1814C18.0106 27.0966 22.0043 29.6025 26.6544 30.9698C27.0553 31.0877 27.4476 31.0855 27.778 31.009C28.1189 31.3286 28.9028 31.4579 29.2789 31.0219C32.8067 26.9278 40.9865 25.2413 48.3571 25.1482C49.8692 25.1282 50.2138 24.0469 49.3946 23.5607Z" fill="#FF6600"/>
<path d="M78.2296 13.3962C77.8936 12.6496 76.7033 12.2883 75.6731 11.8937C73.4174 11.03 71.2878 10.1115 69.0704 9.20641C63.5436 6.94987 59.225 3.77046 53.4149 1.75885C51.6448 -0.433046 44.01 2.10428 42.1057 3.00793C38.0761 4.9209 32.5252 8.79929 33.2224 12.1446C33.2255 12.1586 33.2373 12.1679 33.241 12.1815C33.0944 12.2706 33.0257 12.4117 33.1568 12.5166C35.7269 14.5788 39.4806 16.1246 42.8933 17.8214C44.9894 18.864 47.0819 19.9043 49.2523 20.8918C50.6338 21.5203 52.5611 22.7908 54.4864 22.5373C54.5025 22.5351 54.5149 22.5303 54.5304 22.5281C54.9894 22.8709 55.9255 22.9755 56.3326 22.4815C58.258 20.143 61.5192 18.4232 65.1417 17.0297C67.1314 16.2642 69.2696 15.6879 71.5668 15.3487C73.2119 15.1064 74.7612 15.6181 76.2937 15.3251C76.8078 15.2265 77.2718 14.8685 77.0485 14.5312C77.0219 14.4909 76.9817 14.4613 76.9514 14.4226C77.2991 14.4015 77.5799 14.3295 77.9017 14.1396C78.2265 13.9467 78.3484 13.6589 78.2296 13.3962Z" fill="#FF6600"/>
<path d="M82.5549 18.0006C81.0181 17.1132 79.4651 16.1427 77.5323 15.5671C75.8346 15.0613 74.3399 16.5627 76.0382 17.0932C77.0596 17.4117 77.9425 17.8617 78.7734 18.3449C73.199 19.7632 67.4859 21.0821 62.2715 22.9057C60.2756 23.6039 58.271 24.301 56.7936 25.3835C54.7977 26.8454 54.9096 29.0724 50.3647 28.4059C45.4529 27.6851 43.6005 28.2223 39.7138 30.1925C34.9925 32.5861 29.5925 34.4429 25.2926 37.1151C19.8468 34.1961 13.4847 32.063 7.81067 29.3121C3.69447 27.3168 3.99454 24.2593 1.57853 21.6551C1.10151 21.1408 -0.200228 21.4959 0.026215 22.046C1.12688 24.7233 0.858984 27.4269 3.91102 29.6276C6.10059 31.2063 9.43228 32.326 12.2158 33.4724C16.4279 35.2069 20.5812 36.9555 24.2717 39.0835C24.8552 39.42 25.9175 39.4725 26.4879 39.0835C30.6567 36.2432 36.1266 34.3358 41.0069 31.9843C43.3542 30.8534 45.1757 29.4293 48.3985 30.006C50.8584 30.4452 52.4089 30.5564 54.8725 30.051C56.1656 29.7858 56.999 29.1263 57.6969 28.4691C58.1689 28.0243 58.4585 27.4712 58.8266 26.9932C59.7417 25.801 62.0655 25.1644 63.8659 24.5342C69.6934 22.4948 76.1384 21.1789 82.2419 19.4554C83.147 19.1998 83.2293 18.39 82.5549 18.0006Z" fill="#FF6600"/>
</svg>
