<svg width="53" height="53" viewBox="0 0 53 53" fill="none" xmlns="http://www.w3.org/2000/svg">
<path d="M36.4375 19.875C36.4375 25.3633 31.9883 29.8125 26.5 29.8125C21.0117 29.8125 16.5625 25.3633 16.5625 19.875C16.5625 14.3867 21.0117 9.9375 26.5 9.9375C31.9883 9.9375 36.4375 14.3867 36.4375 19.875Z" fill="#FF6600"/>
<path fill-rule="evenodd" clip-rule="evenodd" d="M0 26.5C0 11.8645 11.8645 0 26.5 0C41.1355 0 53 11.8645 53 26.5C53 41.1355 41.1355 53 26.5 53C11.8645 53 0 41.1355 0 26.5ZM26.5 3.3125C13.6939 3.3125 3.3125 13.6939 3.3125 26.5C3.3125 31.977 5.21141 37.0104 8.38679 40.9779C10.7422 37.1836 15.9154 33.125 26.5 33.125C37.0847 33.125 42.2578 37.1836 44.6132 40.978C47.7886 37.0104 49.6875 31.977 49.6875 26.5C49.6875 13.6939 39.3061 3.3125 26.5 3.3125Z" fill="#FF6600"/>
</svg>
