<?xml version="1.0" standalone="no"?>
<!DOCTYPE svg PUBLIC "-//W3C//DTD SVG 1.1//EN" "http://www.w3.org/Graphics/SVG/1.1/DTD/svg11.dtd">
<svg xmlns="http://www.w3.org/2000/svg" width="223" height="40" viewBox="0 0 223 40" fill="none">
<path d="M103.384 30.24C102.2 30.24 101.104 30.024 100.096 29.592C99.104 29.16 98.232 28.56 97.48 27.792C96.744 27.008 96.168 26.096 95.752 25.056C95.352 24 95.152 22.848 95.152 21.6C95.152 20.352 95.352 19.208 95.752 18.168C96.168 17.112 96.744 16.2 97.48 15.432C98.232 14.648 99.104 14.04 100.096 13.608C101.104 13.176 102.2 12.96 103.384 12.96C104.568 12.96 105.656 13.176 106.648 13.608C107.656 14.04 108.528 14.648 109.264 15.432C110.016 16.216 110.592 17.136 110.992 18.192C111.408 19.232 111.616 20.368 111.616 21.6C111.616 22.832 111.408 23.976 110.992 25.032C110.592 26.072 110.016 26.984 109.264 27.768C108.528 28.552 107.656 29.16 106.648 29.592C105.656 30.024 104.568 30.24 103.384 30.24ZM103.384 27.72C104.2 27.72 104.944 27.568 105.616 27.264C106.304 26.96 106.896 26.536 107.392 25.992C107.888 25.432 108.272 24.784 108.544 24.048C108.832 23.296 108.976 22.48 108.976 21.6C108.976 20.72 108.832 19.912 108.544 19.176C108.272 18.424 107.888 17.776 107.392 17.232C106.896 16.672 106.304 16.24 105.616 15.936C104.944 15.632 104.2 15.48 103.384 15.48C102.568 15.48 101.816 15.632 101.128 15.936C100.456 16.24 99.864 16.664 99.352 17.208C98.856 17.752 98.472 18.4 98.2 19.152C97.928 19.888 97.792 20.704 97.792 21.6C97.792 22.48 97.928 23.296 98.2 24.048C98.472 24.8 98.856 25.448 99.352 25.992C99.864 26.536 100.456 26.96 101.128 27.264C101.816 27.568 102.568 27.72 103.384 27.72ZM114.501 35.28V17.4H116.997V20.28L116.613 20.064C116.709 19.584 116.981 19.128 117.429 18.696C117.877 18.248 118.421 17.888 119.061 17.616C119.717 17.328 120.389 17.184 121.077 17.184C122.213 17.184 123.221 17.464 124.101 18.024C124.981 18.584 125.677 19.352 126.189 20.328C126.701 21.304 126.957 22.424 126.957 23.688C126.957 24.936 126.701 26.056 126.189 27.048C125.693 28.024 125.005 28.8 124.125 29.376C123.245 29.936 122.253 30.216 121.149 30.216C120.413 30.216 119.701 30.072 119.013 29.784C118.325 29.48 117.741 29.096 117.261 28.632C116.781 28.168 116.485 27.688 116.373 27.192L116.997 26.856V35.28H114.501ZM120.741 27.936C121.477 27.936 122.133 27.752 122.709 27.384C123.285 27.016 123.741 26.512 124.077 25.872C124.413 25.232 124.581 24.504 124.581 23.688C124.581 22.872 124.413 22.152 124.077 21.528C123.757 20.888 123.309 20.384 122.733 20.016C122.157 19.648 121.493 19.464 120.741 19.464C119.989 19.464 119.325 19.648 118.749 20.016C118.173 20.368 117.717 20.864 117.381 21.504C117.045 22.144 116.877 22.872 116.877 23.688C116.877 24.504 117.045 25.232 117.381 25.872C117.717 26.512 118.173 27.016 118.749 27.384C119.325 27.752 119.989 27.936 120.741 27.936ZM135.522 30.24C134.226 30.24 133.074 29.968 132.066 29.424C131.074 28.864 130.29 28.104 129.714 27.144C129.154 26.184 128.874 25.08 128.874 23.832C128.874 22.84 129.034 21.936 129.354 21.12C129.674 20.304 130.114 19.6 130.674 19.008C131.25 18.4 131.93 17.936 132.714 17.616C133.514 17.28 134.378 17.112 135.306 17.112C136.122 17.112 136.882 17.272 137.586 17.592C138.29 17.896 138.898 18.32 139.41 18.864C139.938 19.408 140.338 20.056 140.61 20.808C140.898 21.544 141.034 22.352 141.018 23.232L140.994 24.288H130.698L130.146 22.32H138.858L138.498 22.728V22.152C138.45 21.624 138.274 21.152 137.97 20.736C137.666 20.32 137.282 19.992 136.818 19.752C136.354 19.512 135.85 19.392 135.306 19.392C134.442 19.392 133.714 19.56 133.122 19.896C132.53 20.216 132.082 20.696 131.778 21.336C131.474 21.96 131.322 22.736 131.322 23.664C131.322 24.544 131.506 25.312 131.874 25.968C132.242 26.608 132.762 27.104 133.434 27.456C134.106 27.808 134.882 27.984 135.762 27.984C136.386 27.984 136.962 27.88 137.49 27.672C138.034 27.464 138.618 27.088 139.242 26.544L140.49 28.296C140.106 28.68 139.634 29.016 139.074 29.304C138.53 29.592 137.946 29.824 137.322 30C136.714 30.16 136.114 30.24 135.522 30.24ZM143.705 30V17.4H146.177V19.992L145.745 20.28C145.905 19.72 146.217 19.208 146.681 18.744C147.145 18.264 147.697 17.88 148.337 17.592C148.977 17.288 149.633 17.136 150.305 17.136C151.265 17.136 152.065 17.328 152.705 17.712C153.345 18.08 153.825 18.648 154.145 19.416C154.465 20.184 154.625 21.152 154.625 22.32V30H152.153V22.488C152.153 21.768 152.057 21.176 151.865 20.712C151.673 20.232 151.377 19.888 150.977 19.68C150.577 19.456 150.081 19.36 149.489 19.392C149.009 19.392 148.569 19.472 148.169 19.632C147.769 19.776 147.417 19.984 147.113 20.256C146.825 20.528 146.593 20.848 146.417 21.216C146.257 21.568 146.177 21.952 146.177 22.368V30H144.953C144.745 30 144.537 30 144.329 30C144.121 30 143.913 30 143.705 30ZM165.329 30V13.2H172.337C173.409 13.2 174.313 13.36 175.049 13.68C175.785 14 176.337 14.48 176.705 15.12C177.089 15.744 177.281 16.512 177.281 17.424C177.281 18.336 177.025 19.112 176.513 19.752C176.017 20.392 175.321 20.832 174.425 21.072V20.592C175.177 20.752 175.833 21.04 176.393 21.456C176.953 21.856 177.385 22.36 177.689 22.968C178.009 23.576 178.169 24.272 178.169 25.056C178.169 25.856 178.041 26.568 177.785 27.192C177.545 27.8 177.177 28.312 176.681 28.728C176.201 29.144 175.617 29.464 174.929 29.688C174.241 29.896 173.457 30 172.577 30H165.329ZM167.921 27.504H172.433C173.089 27.504 173.641 27.408 174.089 27.216C174.553 27.024 174.905 26.744 175.145 26.376C175.401 25.992 175.529 25.536 175.529 25.008C175.529 24.512 175.393 24.088 175.121 23.736C174.865 23.384 174.497 23.12 174.017 22.944C173.537 22.752 172.969 22.656 172.313 22.656H167.921V27.504ZM167.921 20.16H172.193C172.673 20.16 173.097 20.064 173.465 19.872C173.849 19.68 174.145 19.416 174.353 19.08C174.577 18.744 174.689 18.36 174.689 17.928C174.689 17.208 174.449 16.656 173.969 16.272C173.489 15.888 172.801 15.696 171.905 15.696H167.921V20.16ZM186.681 30.24C185.449 30.24 184.345 29.96 183.369 29.4C182.409 28.824 181.649 28.048 181.089 27.072C180.529 26.08 180.249 24.952 180.249 23.688C180.249 22.424 180.529 21.304 181.089 20.328C181.649 19.336 182.409 18.56 183.369 18C184.345 17.424 185.449 17.136 186.681 17.136C187.897 17.136 188.985 17.424 189.945 18C190.921 18.56 191.689 19.336 192.249 20.328C192.809 21.304 193.089 22.424 193.089 23.688C193.089 24.952 192.809 26.08 192.249 27.072C191.689 28.048 190.921 28.824 189.945 29.4C188.985 29.96 187.897 30.24 186.681 30.24ZM186.681 27.984C187.433 27.984 188.105 27.8 188.697 27.432C189.289 27.048 189.753 26.536 190.089 25.896C190.425 25.24 190.585 24.504 190.569 23.688C190.585 22.856 190.425 22.12 190.089 21.48C189.753 20.824 189.289 20.312 188.697 19.944C188.105 19.576 187.433 19.392 186.681 19.392C185.929 19.392 185.249 19.584 184.641 19.968C184.049 20.336 183.585 20.848 183.249 21.504C182.913 22.144 182.753 22.872 182.769 23.688C182.753 24.504 182.913 25.24 183.249 25.896C183.585 26.536 184.049 27.048 184.641 27.432C185.249 27.8 185.929 27.984 186.681 27.984ZM201.447 30.24C200.215 30.24 199.111 29.96 198.135 29.4C197.175 28.824 196.415 28.048 195.855 27.072C195.295 26.08 195.015 24.952 195.015 23.688C195.015 22.424 195.295 21.304 195.855 20.328C196.415 19.336 197.175 18.56 198.135 18C199.111 17.424 200.215 17.136 201.447 17.136C202.663 17.136 203.751 17.424 204.711 18C205.687 18.56 206.455 19.336 207.015 20.328C207.575 21.304 207.855 22.424 207.855 23.688C207.855 24.952 207.575 26.08 207.015 27.072C206.455 28.048 205.687 28.824 204.711 29.4C203.751 29.96 202.663 30.24 201.447 30.24ZM201.447 27.984C202.199 27.984 202.871 27.8 203.463 27.432C204.055 27.048 204.519 26.536 204.855 25.896C205.191 25.24 205.351 24.504 205.335 23.688C205.351 22.856 205.191 22.12 204.855 21.48C204.519 20.824 204.055 20.312 203.463 19.944C202.871 19.576 202.199 19.392 201.447 19.392C200.695 19.392 200.015 19.584 199.407 19.968C198.815 20.336 198.351 20.848 198.015 21.504C197.679 22.144 197.519 22.872 197.535 23.688C197.519 24.504 197.679 25.24 198.015 25.896C198.351 26.536 198.815 27.048 199.407 27.432C200.015 27.8 200.695 27.984 201.447 27.984ZM212.804 26.064L212.684 23.376L218.708 17.4H222.044L212.804 26.064ZM210.548 30V12.24H213.02V30H210.548ZM219.044 30L214.292 24.456L216.044 22.848L222.212 30H219.044Z" fill="#FF6600"/>
<path d="M49.3946 23.5607C49.4033 23.4528 49.3687 23.3405 49.2449 23.2289C46.8233 21.0489 42.5871 19.4362 39.1812 17.8266C35.8012 16.2299 32.4405 14.591 28.9201 13.104C28.9318 13.029 28.9312 12.9537 28.9071 12.879C27.9834 9.99296 19.8834 11.6019 17.2483 12.2839C11.294 13.8248 5.97011 16.0503 0.972893 18.5001C0.344296 18.8082 0.789758 19.3003 1.42454 19.4063C5.60323 21.333 9.82522 23.2226 13.9643 25.1814C18.0106 27.0966 22.0043 29.6025 26.6544 30.9698C27.0553 31.0877 27.4476 31.0855 27.778 31.009C28.1189 31.3286 28.9028 31.4579 29.2789 31.0219C32.8067 26.9278 40.9865 25.2413 48.3571 25.1482C49.8692 25.1282 50.2138 24.0469 49.3946 23.5607Z" fill="#FF6600"/>
<path d="M78.2296 13.3962C77.8936 12.6496 76.7033 12.2883 75.6731 11.8937C73.4174 11.03 71.2878 10.1115 69.0704 9.20641C63.5436 6.94987 59.225 3.77046 53.4149 1.75885C51.6448 -0.433046 44.01 2.10428 42.1057 3.00793C38.0761 4.9209 32.5252 8.79929 33.2224 12.1446C33.2255 12.1586 33.2373 12.1679 33.241 12.1815C33.0944 12.2706 33.0257 12.4117 33.1568 12.5166C35.7269 14.5788 39.4806 16.1246 42.8933 17.8214C44.9894 18.864 47.0819 19.9043 49.2523 20.8918C50.6338 21.5203 52.5611 22.7908 54.4864 22.5373C54.5025 22.5351 54.5149 22.5303 54.5304 22.5281C54.9894 22.8709 55.9255 22.9755 56.3326 22.4815C58.258 20.143 61.5192 18.4232 65.1417 17.0297C67.1314 16.2642 69.2696 15.6879 71.5668 15.3487C73.2119 15.1064 74.7612 15.6181 76.2937 15.3251C76.8078 15.2265 77.2718 14.8685 77.0485 14.5312C77.0219 14.4909 76.9817 14.4613 76.9514 14.4226C77.2991 14.4015 77.5799 14.3295 77.9017 14.1396C78.2265 13.9467 78.3484 13.6589 78.2296 13.3962Z" fill="#FF6600"/>
<path d="M82.5549 18.0006C81.0181 17.1132 79.4651 16.1427 77.5323 15.5671C75.8346 15.0613 74.3399 16.5627 76.0382 17.0932C77.0596 17.4117 77.9425 17.8617 78.7734 18.3449C73.199 19.7632 67.4859 21.0821 62.2715 22.9057C60.2756 23.6039 58.271 24.301 56.7936 25.3835C54.7977 26.8454 54.9096 29.0724 50.3647 28.4059C45.4529 27.6851 43.6005 28.2223 39.7138 30.1925C34.9925 32.5861 29.5925 34.4429 25.2926 37.1151C19.8468 34.1961 13.4847 32.063 7.81067 29.3121C3.69447 27.3168 3.99454 24.2593 1.57853 21.6551C1.10151 21.1408 -0.200228 21.4959 0.026215 22.046C1.12688 24.7233 0.858984 27.4269 3.91102 29.6276C6.10059 31.2063 9.43228 32.326 12.2158 33.4724C16.4279 35.2069 20.5812 36.9555 24.2717 39.0835C24.8552 39.42 25.9175 39.4725 26.4879 39.0835C30.6567 36.2432 36.1266 34.3358 41.0069 31.9843C43.3542 30.8534 45.1757 29.4293 48.3985 30.006C50.8584 30.4452 52.4089 30.5564 54.8725 30.051C56.1656 29.7858 56.999 29.1263 57.6969 28.4691C58.1689 28.0243 58.4585 27.4712 58.8266 26.9932C59.7417 25.801 62.0655 25.1644 63.8659 24.5342C69.6934 22.4948 76.1384 21.1789 82.2419 19.4554C83.147 19.1998 83.2293 18.39 82.5549 18.0006Z" fill="#FF6600"/>
</svg>